# xmcd CD database file
#
# Track frame offsets:
#	150
#	27219
#	48588
#	66833
#	84477
#	102942
#	127776
#	145057
#	164082
#
# Disc length: 2411 seconds
#
# Revision: 0
# Processed by: cddbd v1.4PL0 Copyright (c) Steve Scherf et al.
# Submitted via: CDex 1.50
#
DISCID=75096909
DTITLE=Al DiMeola - Scenario
DYEAR=1900
DGENRE=Jazz
TTITLE0=Mata Hari
TTITLE1=African Night
TTITLE2=Island Dreamer
TTITLE3=Scenario
TTITLE4=Sequencer
TTITLE5=Cachaca
TTITLE6=Hypnotic Conviction
TTITLE7=Calliope
TTITLE8=Scoundrel
EXTD=
EXTT0=
EXTT1=
EXTT2=
EXTT3=
EXTT4=
EXTT5=
EXTT6=
EXTT7=
EXTT8=
PLAYORDER=
